<?xml version="1.0" encoding="UTF-8" standalone="no"?>
<svg
   xmlns:dc="http://purl.org/dc/elements/1.1/"
   xmlns:cc="http://creativecommons.org/ns#"
   xmlns:rdf="http://www.w3.org/1999/02/22-rdf-syntax-ns#"
   xmlns:svg="http://www.w3.org/2000/svg"
   xmlns="http://www.w3.org/2000/svg"
   viewBox="0 0 3333.3333 2000"
   height="2000"
   width="3333.3333"
   xml:space="preserve"
   id="svg2"
   version="1.1"><metadata
     id="metadata8"><rdf:RDF><cc:Work
         rdf:about=""><dc:format>image/svg+xml</dc:format><dc:type
           rdf:resource="http://purl.org/dc/dcmitype/StillImage" /></cc:Work></rdf:RDF></metadata><defs
     id="defs6" /><g
     transform="matrix(1.3333333,0,0,-1.3333333,0,2000)"
     id="g10"><g
       transform="scale(0.1)"
       id="g12"><g
         transform="scale(1.53374)"
         id="g14"><path
           id="path16"
           style="fill:#d9eaf8;fill-opacity:1;fill-rule:nonzero;stroke:none"
           d="M 16300,0 H 0 V 9780 H 16300 V 0" /></g><g
         transform="scale(1.53374)"
         id="g18"><path
           id="path20"
           style="fill:#deeefa;fill-opacity:1;fill-rule:nonzero;stroke:none"
           d="m 19137.9,5801.48 c -612.4,260.06 -1301.7,307.97 -1959.8,211.04 -1212.6,-178.61 -2178.3,-856.5 -3443,-761.65 -891.8,66.88 -2361.5,569.02 -1794,1756.89 158.1,330.81 461.6,576.55 797.5,724.52 416.1,183.23 879.2,212.5 1316.1,316.73 595.7,142.09 1155.8,389.29 1645.2,759.2 1259.9,952.35 2630.8,794.71 4001.8,133.21 l -563.8,-3139.94" /></g><g
         transform="scale(1.37437)"
         id="g22"><path
           id="path24"
           style="fill:#deeefa;fill-opacity:1;fill-rule:nonzero;stroke:none"
           d="m 1934.8,10584.9 c 871.52,84.7 1492.85,-831.63 1946.68,-1574.1 499.38,-817 1058.94,-1496.63 1842.18,-1953.37 1548.19,-902.81 3424.11,-733.55 4904.24,179.68 243.2,150.1 476.9,320.52 698.3,510.1 709.5,607.79 1358.2,1318.27 2130.9,1823.68 872.8,570.81 1846.2,701.81 2842.9,522.01 L 16189.3,11625 1934.8,10584.9" /></g><g
         transform="scale(1.1305)"
         id="g26"><path
           id="path28"
           style="fill:#e7f1fa;fill-opacity:1;fill-rule:nonzero;stroke:none"
           d="m -2260.67,9423.57 c 130.23,-364.06 431.08,-648.32 772.79,-829.26 1220.151,-646.04 2708.49,-363.32 3865.29,277.72 1276.87,707.55 2114.13,1974.57 3395.09,2669.87 1395.69,757.6 2532.41,159.9 3880.02,-348.5 1415.58,-533.9 2894.38,-285.4 4116.48,603.6 1131.7,823.1 1768.2,2115.7 2531,3251.8 H -2260.67 V 9423.57" /></g><g
         transform="scale(1.30901)"
         id="g30"><path
           id="path32"
           style="fill:#deeefa;fill-opacity:1;fill-rule:nonzero;stroke:none"
           d="m 2847.9,1100.07 c 926.85,292.05 1586.78,1134.82 2197.43,1841.77 701.93,812.52 1556.4,1579.86 2629.62,1831.2 1483.79,347.49 2980.85,-341.48 4371.65,-769.63 1392.5,-428.65 3117.7,-253.02 4253.4,704.94 L 13389.3,523.066 3143.5,-3036.26 2847.9,1100.07" /></g><g
         transform="scale(1.53374)"
         id="g34"><path
           id="path36"
           style="fill:#e7f1fa;fill-opacity:1;fill-rule:nonzero;stroke:none"
           d="m 17360.9,3812.82 c -872.3,771.83 -2136.8,1133.39 -3279.6,872.14 -764.9,-174.85 -1326.8,-672.94 -1793.4,-1280.16 -246,-320.12 -438.1,-688.89 -720.6,-982.03 -453.2,-470.36 -1048.6,-544.23 -1673.26,-483.46 -737.48,71.72 -1384.46,282.12 -2123.96,38.79 C 7042.71,1738.75 6690.37,1184.23 6281.99,583.932 5974.86,132.422 5579.64,-256.17 5097.38,-515.796 H 17360.9 V 3812.82" /></g><path
         id="path38"
         style="fill:#deeefa;fill-opacity:1;fill-rule:nonzero;stroke:none"
         d="m -3552.13,-2610.3 c 1158.43,-53.9 2208.44,713 2931.935,1619.3 1076.55,1348.699 1664.575,3109.2 3185.935,4050.9 1085.96,672.2 2447.54,876.5 3451.39,1682.6 824.02,661.67 1077.19,2042.89 402.22,2901.65 C 5380.28,8966.2 3614.52,8086.98 2464.3,7419.76 687.297,6388.94 -2487.08,4575.1 -4298.19,6565.85 V -2613 l 746.06,2.7" /></g></g></svg>