<?xml version="1.0" encoding="UTF-8"?>
<svg xmlns="http://www.w3.org/2000/svg" xmlns:xlink="http://www.w3.org/1999/xlink" width="4000" height="1982.89" viewBox="0 0 4000 1982.89">
<defs>
<linearGradient id="linear-pattern-0" gradientUnits="userSpaceOnUse" x1="0" y1="0" x2="1" y2="0" gradientTransform="matrix(-4000, 0, 0, -4000, 4000, 991.445)">
<stop offset="0" stop-color="rgb(88.002014%, 96.141052%, 99.246216%)" stop-opacity="1"/>
<stop offset="0.0078125" stop-color="rgb(87.893677%, 96.105957%, 99.240112%)" stop-opacity="1"/>
<stop offset="0.015625" stop-color="rgb(87.672424%, 96.034241%, 99.226379%)" stop-opacity="1"/>
<stop offset="0.0234375" stop-color="rgb(87.454224%, 95.96405%, 99.212646%)" stop-opacity="1"/>
<stop offset="0.03125" stop-color="rgb(87.237549%, 95.895386%, 99.198914%)" stop-opacity="1"/>
<stop offset="0.0390625" stop-color="rgb(87.017822%, 95.823669%, 99.185181%)" stop-opacity="1"/>
<stop offset="0.046875" stop-color="rgb(86.798096%, 95.753479%, 99.171448%)" stop-opacity="1"/>
<stop offset="0.0546875" stop-color="rgb(86.581421%, 95.683289%, 99.157715%)" stop-opacity="1"/>
<stop offset="0.0625" stop-color="rgb(86.361694%, 95.613098%, 99.143982%)" stop-opacity="1"/>
<stop offset="0.0703125" stop-color="rgb(86.141968%, 95.542908%, 99.130249%)" stop-opacity="1"/>
<stop offset="0.078125" stop-color="rgb(85.923767%, 95.472717%, 99.116516%)" stop-opacity="1"/>
<stop offset="0.0859375" stop-color="rgb(85.705566%, 95.402527%, 99.102783%)" stop-opacity="1"/>
<stop offset="0.09375" stop-color="rgb(85.487366%, 95.332336%, 99.08905%)" stop-opacity="1"/>
<stop offset="0.101562" stop-color="rgb(85.266113%, 95.26062%, 99.075317%)" stop-opacity="1"/>
<stop offset="0.109375" stop-color="rgb(85.047913%, 95.19043%, 99.061584%)" stop-opacity="1"/>
<stop offset="0.117188" stop-color="rgb(84.831238%, 95.120239%, 99.047852%)" stop-opacity="1"/>
<stop offset="0.125" stop-color="rgb(84.609985%, 95.050049%, 99.034119%)" stop-opacity="1"/>
<stop offset="0.132812" stop-color="rgb(84.391785%, 94.979858%, 99.020386%)" stop-opacity="1"/>
<stop offset="0.140625" stop-color="rgb(84.17511%, 94.909668%, 99.006653%)" stop-opacity="1"/>
<stop offset="0.148438" stop-color="rgb(83.955383%, 94.839478%, 98.99292%)" stop-opacity="1"/>
<stop offset="0.15625" stop-color="rgb(83.735657%, 94.769287%, 98.979187%)" stop-opacity="1"/>
<stop offset="0.164062" stop-color="rgb(83.517456%, 94.699097%, 98.965454%)" stop-opacity="1"/>
<stop offset="0.171875" stop-color="rgb(83.299255%, 94.628906%, 98.951721%)" stop-opacity="1"/>
<stop offset="0.179688" stop-color="rgb(83.081055%, 94.558716%, 98.937988%)" stop-opacity="1"/>
<stop offset="0.1875" stop-color="rgb(82.861328%, 94.487%, 98.924255%)" stop-opacity="1"/>
<stop offset="0.195312" stop-color="rgb(82.643127%, 94.416809%, 98.910522%)" stop-opacity="1"/>
<stop offset="0.203125" stop-color="rgb(82.424927%, 94.346619%, 98.89679%)" stop-opacity="1"/>
<stop offset="0.210938" stop-color="rgb(82.203674%, 94.276428%, 98.883057%)" stop-opacity="1"/>
<stop offset="0.21875" stop-color="rgb(81.985474%, 94.206238%, 98.869324%)" stop-opacity="1"/>
<stop offset="0.226562" stop-color="rgb(81.768799%, 94.136047%, 98.855591%)" stop-opacity="1"/>
<stop offset="0.234375" stop-color="rgb(81.549072%, 94.065857%, 98.841858%)" stop-opacity="1"/>
<stop offset="0.242188" stop-color="rgb(81.329346%, 93.994141%, 98.828125%)" stop-opacity="1"/>
<stop offset="0.25" stop-color="rgb(81.111145%, 93.92395%, 98.814392%)" stop-opacity="1"/>
<stop offset="0.257812" stop-color="rgb(80.892944%, 93.85376%, 98.800659%)" stop-opacity="1"/>
<stop offset="0.265625" stop-color="rgb(80.673218%, 93.783569%, 98.786926%)" stop-opacity="1"/>
<stop offset="0.273438" stop-color="rgb(80.455017%, 93.713379%, 98.773193%)" stop-opacity="1"/>
<stop offset="0.28125" stop-color="rgb(80.236816%, 93.643188%, 98.75946%)" stop-opacity="1"/>
<stop offset="0.289062" stop-color="rgb(80.018616%, 93.572998%, 98.745728%)" stop-opacity="1"/>
<stop offset="0.296875" stop-color="rgb(79.797363%, 93.502808%, 98.731995%)" stop-opacity="1"/>
<stop offset="0.304688" stop-color="rgb(79.579163%, 93.432617%, 98.718262%)" stop-opacity="1"/>
<stop offset="0.3125" stop-color="rgb(79.362488%, 93.362427%, 98.704529%)" stop-opacity="1"/>
<stop offset="0.320312" stop-color="rgb(79.141235%, 93.29071%, 98.690796%)" stop-opacity="1"/>
<stop offset="0.328125" stop-color="rgb(78.923035%, 93.22052%, 98.677063%)" stop-opacity="1"/>
<stop offset="0.335938" stop-color="rgb(78.70636%, 93.151855%, 98.664856%)" stop-opacity="1"/>
<stop offset="0.34375" stop-color="rgb(78.486633%, 93.080139%, 98.649597%)" stop-opacity="1"/>
<stop offset="0.351562" stop-color="rgb(78.266907%, 93.009949%, 98.635864%)" stop-opacity="1"/>
<stop offset="0.359375" stop-color="rgb(78.048706%, 92.939758%, 98.622131%)" stop-opacity="1"/>
<stop offset="0.367188" stop-color="rgb(77.830505%, 92.869568%, 98.609924%)" stop-opacity="1"/>
<stop offset="0.375" stop-color="rgb(77.612305%, 92.799377%, 98.596191%)" stop-opacity="1"/>
<stop offset="0.382812" stop-color="rgb(77.392578%, 92.729187%, 98.582458%)" stop-opacity="1"/>
<stop offset="0.390625" stop-color="rgb(77.172852%, 92.657471%, 98.568726%)" stop-opacity="1"/>
<stop offset="0.398438" stop-color="rgb(76.956177%, 92.588806%, 98.554993%)" stop-opacity="1"/>
<stop offset="0.40625" stop-color="rgb(76.734924%, 92.51709%, 98.54126%)" stop-opacity="1"/>
<stop offset="0.414062" stop-color="rgb(76.516724%, 92.446899%, 98.527527%)" stop-opacity="1"/>
<stop offset="0.421875" stop-color="rgb(76.300049%, 92.376709%, 98.513794%)" stop-opacity="1"/>
<stop offset="0.429688" stop-color="rgb(76.080322%, 92.306519%, 98.500061%)" stop-opacity="1"/>
<stop offset="0.4375" stop-color="rgb(75.860596%, 92.236328%, 98.486328%)" stop-opacity="1"/>
<stop offset="0.445312" stop-color="rgb(75.642395%, 92.166138%, 98.472595%)" stop-opacity="1"/>
<stop offset="0.453125" stop-color="rgb(75.424194%, 92.095947%, 98.458862%)" stop-opacity="1"/>
<stop offset="0.460938" stop-color="rgb(75.204468%, 92.025757%, 98.445129%)" stop-opacity="1"/>
<stop offset="0.46875" stop-color="rgb(74.986267%, 91.955566%, 98.431396%)" stop-opacity="1"/>
<stop offset="0.476562" stop-color="rgb(74.768066%, 91.885376%, 98.417664%)" stop-opacity="1"/>
<stop offset="0.484375" stop-color="rgb(74.549866%, 91.815186%, 98.403931%)" stop-opacity="1"/>
<stop offset="0.492188" stop-color="rgb(74.328613%, 91.743469%, 98.390198%)" stop-opacity="1"/>
<stop offset="0.5" stop-color="rgb(74.110413%, 91.673279%, 98.376465%)" stop-opacity="1"/>
<stop offset="0.507812" stop-color="rgb(73.893738%, 91.603088%, 98.362732%)" stop-opacity="1"/>
<stop offset="0.515625" stop-color="rgb(73.672485%, 91.532898%, 98.348999%)" stop-opacity="1"/>
<stop offset="0.523438" stop-color="rgb(73.454285%, 91.462708%, 98.335266%)" stop-opacity="1"/>
<stop offset="0.53125" stop-color="rgb(73.236084%, 91.392517%, 98.321533%)" stop-opacity="1"/>
<stop offset="0.539062" stop-color="rgb(73.017883%, 91.322327%, 98.3078%)" stop-opacity="1"/>
<stop offset="0.546875" stop-color="rgb(72.798157%, 91.25061%, 98.294067%)" stop-opacity="1"/>
<stop offset="0.554688" stop-color="rgb(72.579956%, 91.18042%, 98.280334%)" stop-opacity="1"/>
<stop offset="0.5625" stop-color="rgb(72.361755%, 91.110229%, 98.266602%)" stop-opacity="1"/>
<stop offset="0.570312" stop-color="rgb(72.143555%, 91.040039%, 98.252869%)" stop-opacity="1"/>
<stop offset="0.578125" stop-color="rgb(71.923828%, 90.969849%, 98.239136%)" stop-opacity="1"/>
<stop offset="0.585938" stop-color="rgb(71.704102%, 90.899658%, 98.225403%)" stop-opacity="1"/>
<stop offset="0.59375" stop-color="rgb(71.487427%, 90.829468%, 98.21167%)" stop-opacity="1"/>
<stop offset="0.601562" stop-color="rgb(71.266174%, 90.757751%, 98.197937%)" stop-opacity="1"/>
<stop offset="0.609375" stop-color="rgb(71.047974%, 90.687561%, 98.184204%)" stop-opacity="1"/>
<stop offset="0.617188" stop-color="rgb(70.831299%, 90.618896%, 98.170471%)" stop-opacity="1"/>
<stop offset="0.625" stop-color="rgb(70.611572%, 90.54718%, 98.156738%)" stop-opacity="1"/>
<stop offset="0.632812" stop-color="rgb(70.391846%, 90.47699%, 98.143005%)" stop-opacity="1"/>
<stop offset="0.640625" stop-color="rgb(70.173645%, 90.406799%, 98.129272%)" stop-opacity="1"/>
<stop offset="0.648438" stop-color="rgb(69.955444%, 90.336609%, 98.11554%)" stop-opacity="1"/>
<stop offset="0.65625" stop-color="rgb(69.735718%, 90.266418%, 98.101807%)" stop-opacity="1"/>
<stop offset="0.664062" stop-color="rgb(69.517517%, 90.196228%, 98.088074%)" stop-opacity="1"/>
<stop offset="0.671875" stop-color="rgb(69.297791%, 90.126038%, 98.074341%)" stop-opacity="1"/>
<stop offset="0.679688" stop-color="rgb(69.081116%, 90.055847%, 98.060608%)" stop-opacity="1"/>
<stop offset="0.6875" stop-color="rgb(68.859863%, 89.984131%, 98.046875%)" stop-opacity="1"/>
<stop offset="0.695312" stop-color="rgb(68.641663%, 89.91394%, 98.033142%)" stop-opacity="1"/>
<stop offset="0.703125" stop-color="rgb(68.424988%, 89.845276%, 98.019409%)" stop-opacity="1"/>
<stop offset="0.710938" stop-color="rgb(68.203735%, 89.77356%, 98.005676%)" stop-opacity="1"/>
<stop offset="0.71875" stop-color="rgb(67.985535%, 89.703369%, 97.991943%)" stop-opacity="1"/>
<stop offset="0.726562" stop-color="rgb(67.767334%, 89.633179%, 97.97821%)" stop-opacity="1"/>
<stop offset="0.734375" stop-color="rgb(67.549133%, 89.562988%, 97.964478%)" stop-opacity="1"/>
<stop offset="0.742188" stop-color="rgb(67.329407%, 89.492798%, 97.950745%)" stop-opacity="1"/>
<stop offset="0.75" stop-color="rgb(67.111206%, 89.422607%, 97.937012%)" stop-opacity="1"/>
<stop offset="0.757812" stop-color="rgb(66.893005%, 89.352417%, 97.923279%)" stop-opacity="1"/>
<stop offset="0.765625" stop-color="rgb(66.674805%, 89.282227%, 97.909546%)" stop-opacity="1"/>
<stop offset="0.773438" stop-color="rgb(66.456604%, 89.212036%, 97.895813%)" stop-opacity="1"/>
<stop offset="0.78125" stop-color="rgb(66.235352%, 89.14032%, 97.88208%)" stop-opacity="1"/>
<stop offset="0.789062" stop-color="rgb(66.018677%, 89.070129%, 97.868347%)" stop-opacity="1"/>
<stop offset="0.796875" stop-color="rgb(65.79895%, 88.999939%, 97.854614%)" stop-opacity="1"/>
<stop offset="0.804688" stop-color="rgb(65.579224%, 88.929749%, 97.840881%)" stop-opacity="1"/>
<stop offset="0.8125" stop-color="rgb(65.361023%, 88.859558%, 97.827148%)" stop-opacity="1"/>
<stop offset="0.820312" stop-color="rgb(65.142822%, 88.789368%, 97.813416%)" stop-opacity="1"/>
<stop offset="0.828125" stop-color="rgb(64.924622%, 88.719177%, 97.799683%)" stop-opacity="1"/>
<stop offset="0.835938" stop-color="rgb(64.704895%, 88.648987%, 97.78595%)" stop-opacity="1"/>
<stop offset="0.84375" stop-color="rgb(64.486694%, 88.578796%, 97.772217%)" stop-opacity="1"/>
<stop offset="0.851562" stop-color="rgb(64.268494%, 88.508606%, 97.758484%)" stop-opacity="1"/>
<stop offset="0.859375" stop-color="rgb(64.048767%, 88.43689%, 97.744751%)" stop-opacity="1"/>
<stop offset="0.867188" stop-color="rgb(63.829041%, 88.366699%, 97.731018%)" stop-opacity="1"/>
<stop offset="0.875" stop-color="rgb(63.612366%, 88.296509%, 97.717285%)" stop-opacity="1"/>
<stop offset="0.882812" stop-color="rgb(63.392639%, 88.226318%, 97.703552%)" stop-opacity="1"/>
<stop offset="0.890625" stop-color="rgb(63.172913%, 88.156128%, 97.689819%)" stop-opacity="1"/>
<stop offset="0.898438" stop-color="rgb(62.956238%, 88.085938%, 97.676086%)" stop-opacity="1"/>
<stop offset="0.90625" stop-color="rgb(62.736511%, 88.015747%, 97.662354%)" stop-opacity="1"/>
<stop offset="0.914062" stop-color="rgb(62.518311%, 87.945557%, 97.648621%)" stop-opacity="1"/>
<stop offset="0.921875" stop-color="rgb(62.298584%, 87.87384%, 97.634888%)" stop-opacity="1"/>
<stop offset="0.929688" stop-color="rgb(62.080383%, 87.80365%, 97.621155%)" stop-opacity="1"/>
<stop offset="0.9375" stop-color="rgb(61.862183%, 87.733459%, 97.607422%)" stop-opacity="1"/>
<stop offset="0.945312" stop-color="rgb(61.642456%, 87.663269%, 97.593689%)" stop-opacity="1"/>
<stop offset="0.953125" stop-color="rgb(61.422729%, 87.593079%, 97.579956%)" stop-opacity="1"/>
<stop offset="0.960938" stop-color="rgb(61.206055%, 87.522888%, 97.566223%)" stop-opacity="1"/>
<stop offset="0.96875" stop-color="rgb(60.987854%, 87.452698%, 97.55249%)" stop-opacity="1"/>
<stop offset="0.976562" stop-color="rgb(60.766602%, 87.382507%, 97.538757%)" stop-opacity="1"/>
<stop offset="0.984375" stop-color="rgb(60.549927%, 87.312317%, 97.525024%)" stop-opacity="1"/>
<stop offset="0.992188" stop-color="rgb(60.3302%, 87.242126%, 97.511292%)" stop-opacity="1"/>
<stop offset="1" stop-color="rgb(60.110474%, 87.17041%, 97.497559%)" stop-opacity="1"/>
</linearGradient>
<clipPath id="clip-0">

</clipPath>
<clipPath id="clip-1">
<path clip-rule="nonzero" d="M 2739 17 L 4000 17 L 4000 1982.890625 L 2739 1982.890625 Z M 2739 17 "/>
</clipPath>
<clipPath id="clip-2">
<path clip-rule="nonzero" d="M 3032 264 L 4000 264 L 4000 1982.890625 L 3032 1982.890625 Z M 3032 264 "/>
</clipPath>
<clipPath id="clip-3">
<path clip-rule="nonzero" d="M 0 0 L 2179 0 L 2179 1982.890625 L 0 1982.890625 Z M 0 0 "/>
</clipPath>
<clipPath id="clip-4">
<path clip-rule="nonzero" d="M 0 0 L 1755 0 L 1755 1982.890625 L 0 1982.890625 Z M 0 0 "/>
</clipPath>
<clipPath id="clip-5">
<path clip-rule="nonzero" d="M 1231 740 L 3013 740 L 3013 1982.890625 L 1231 1982.890625 Z M 1231 740 "/>
</clipPath>
<clipPath id="clip-6">
<path clip-rule="nonzero" d="M 1372 986 L 2778 986 L 2778 1982.890625 L 1372 1982.890625 Z M 1372 986 "/>
</clipPath>
<clipPath id="clip-7">
<path clip-rule="nonzero" d="M 1457 1230 L 2546 1230 L 2546 1982.890625 L 1457 1982.890625 Z M 1457 1230 "/>
</clipPath>
<clipPath id="clip-8">
<path clip-rule="nonzero" d="M 1533 1463 L 2330 1463 L 2330 1982.890625 L 1533 1982.890625 Z M 1533 1463 "/>
</clipPath>
<clipPath id="clip-9">
<path clip-rule="nonzero" d="M 1599 1546 L 2179 1546 L 2179 1982.890625 L 1599 1982.890625 Z M 1599 1546 "/>
</clipPath>
</defs>
<path fill-rule="nonzero" fill="url(#linear-pattern-0)" d="M 4000 1982.890625 L 4000 0 L 0 0 L 0 1982.890625 Z M 4000 1982.890625 "/>
<g clip-path="url(#clip-0)">
<path fill-rule="nonzero" fill="rgb(80.006409%, 93.569946%, 98.745728%)" fill-opacity="1" d="M 4405.300781 -228.960938 C 4587.808594 -199.289062 4459.050781 485.378906 4840.140625 738.601562 C 5076.109375 895.390625 5274.53125 731.921875 5431.398438 870.570312 C 5799.640625 1196.050781 5252.769531 2579.980469 4927.980469 2551.5 C 4710.800781 2532.449219 4753.03125 1895.859375 4414.949219 1794.058594 C 3969.441406 1659.898438 3398.039062 2686.359375 3193.269531 2575.820312 C 3047.289062 2497.019531 3363.820312 1993.960938 3262.621094 1340.570312 C 3129.550781 481.480469 2365.738281 -47.269531 2452.71875 -142.628906 C 2547.511719 -246.539062 3306.398438 543.550781 3848.199219 318.289062 C 4179.328125 180.621094 4247.988281 -254.539062 4405.300781 -228.960938 "/>
</g>
<g clip-path="url(#clip-1)">
<path fill-rule="nonzero" fill="rgb(71.998596%, 90.994263%, 98.243713%)" fill-opacity="1" d="M 4354.710938 18.078125 C 4505.238281 42.289062 4400.03125 607.019531 4714.609375 815.28125 C 4909.410156 944.230469 5072.789062 809.160156 5202.328125 923.269531 C 5506.421875 1191.128906 5057.441406 2333.03125 4789.589844 2310 C 4610.480469 2294.601562 4644.410156 1769.628906 4365.5 1686.160156 C 3997.960938 1576.171875 3528.25 2423.351562 3359.25 2332.488281 C 3238.769531 2267.710938 3499.070312 1852.46875 3414.699219 1313.859375 C 3303.78125 605.671875 2673.21875 170.75 2744.808594 92 C 2822.820312 6.191406 3449.679688 656.601562 3896.121094 470.101562 C 4168.960938 356.121094 4224.960938 -2.789062 4354.710938 18.078125 "/>
</g>
<g clip-path="url(#clip-2)">
<path fill-rule="nonzero" fill="rgb(63.990784%, 88.418579%, 97.741699%)" fill-opacity="1" d="M 4304.109375 265.121094 C 4422.671875 283.871094 4341.011719 728.660156 4589.089844 891.960938 C 4742.699219 993.074219 4871.039062 886.410156 4973.25 975.96875 C 5213.199219 1186.210938 4862.101562 2086.070312 4651.191406 2068.5 C 4510.160156 2056.75 4535.789062 1643.398438 4316.050781 1578.269531 C 4026.480469 1492.441406 3658.460938 2160.328125 3525.230469 2089.148438 C 3430.25 2038.410156 3634.308594 1710.980469 3566.78125 1287.140625 C 3478 729.859375 2980.710938 388.78125 3036.898438 326.640625 C 3098.140625 258.921875 3592.960938 769.660156 3944.03125 621.921875 C 4158.578125 531.621094 4201.929688 248.960938 4304.109375 265.121094 "/>
</g>
<path fill-rule="nonzero" fill="rgb(56.007385%, 85.850525%, 97.241211%)" fill-opacity="1" d="M 4253.519531 512.160156 C 4340.089844 525.449219 4281.980469 850.300781 4463.558594 968.640625 C 4576 1041.921875 4669.300781 963.648438 4744.179688 1028.660156 C 4919.980469 1181.289062 4666.761719 1839.121094 4512.800781 1827 C 4409.839844 1818.890625 4427.171875 1517.171875 4266.601562 1470.378906 C 4055.011719 1408.699219 3788.671875 1897.320312 3691.210938 1845.820312 C 3621.730469 1809.109375 3769.550781 1569.488281 3718.859375 1260.421875 C 3652.21875 854.050781 3288.191406 606.800781 3328.988281 561.269531 C 3373.449219 511.648438 3736.238281 882.710938 3991.941406 773.730469 C 4148.210938 707.121094 4178.890625 500.710938 4253.519531 512.160156 "/>
<path fill-rule="nonzero" fill="rgb(48.048401%, 83.291626%, 96.742249%)" fill-opacity="1" d="M 4202.921875 759.199219 C 4257.519531 767.03125 4222.960938 971.941406 4338.039062 1045.320312 C 4409.289062 1090.761719 4467.550781 1040.890625 4515.109375 1081.359375 C 4626.761719 1176.371094 4471.429688 1592.171875 4374.398438 1585.5 C 4309.519531 1581.039062 4318.550781 1390.949219 4217.148438 1362.480469 C 4083.53125 1324.96875 3918.878906 1634.300781 3857.191406 1602.488281 C 3813.210938 1579.800781 3904.789062 1428 3870.941406 1233.699219 C 3826.441406 978.238281 3595.671875 824.828125 3621.078125 795.898438 C 3648.769531 764.378906 3879.53125 995.757812 4039.851562 925.539062 C 4137.828125 882.621094 4155.859375 752.460938 4202.921875 759.199219 "/>
<g clip-path="url(#clip-3)">
<path fill-rule="nonzero" fill="rgb(80.006409%, 93.569946%, 98.745728%)" fill-opacity="1" d="M 821.621094 2421.730469 C 648.339844 2519.378906 388.519531 1640.429688 -76.863281 1624.75 C -365.027344 1615.03125 -447.433594 1945.898438 -657.632812 1899.929688 C -1151.078125 1792.019531 -1429.378906 -191.449219 -1134.191406 -393.148438 C -936.789062 -528.019531 -628.460938 233.289062 -282.113281 106.179688 C 187.613281 -66.199219 217.222656 -1685.558594 346.921875 -1672.960938 C 475.488281 -1660.46875 296.835938 -83.839844 752.648438 233.339844 C 1213.558594 554.070312 2027.628906 -618.640625 2160.621094 -429.539062 C 2252.988281 -298.191406 1981.011719 439.300781 1520.171875 889.589844 C 1271.351562 1132.710938 1133.949219 1129.449219 1005.179688 1391.421875 C 781.730469 1846.011719 953.976562 2347.148438 821.621094 2421.730469 "/>
</g>
<g clip-path="url(#clip-4)">
<path fill-rule="nonzero" fill="rgb(71.998596%, 90.994263%, 98.243713%)" fill-opacity="1" d="M -15.191406 1580.910156 C -243.558594 1570.058594 -289.75 1748.859375 -472.691406 1694.691406 C -855.203125 1581.421875 -1071.46875 142.449219 -869.382812 -43.429688 C -736.75 -165.421875 -463.632812 276.121094 -182.53125 183.621094 C 185.226562 62.589844 198.820312 -1100.179688 318.183594 -1076.410156 C 444.960938 -1051.148438 363.796875 49.410156 712.074219 295.28125 C 1064.121094 543.738281 1616.738281 -264.648438 1728.820312 -78.75 C 1813.308594 61.378906 1687.25 598.390625 1343.570312 955.191406 C 1157.109375 1148.761719 1008.539062 1160.921875 881.738281 1364.78125 C 679.46875 1689.980469 815.414062 2072.390625 701.054688 2134.828125 C 544.902344 2219.359375 343.128906 1597.921875 -15.191406 1580.910156 "/>
</g>
<path fill-rule="nonzero" fill="rgb(63.990784%, 88.418579%, 97.741699%)" fill-opacity="1" d="M 46.476562 1537.070312 C -122.121094 1524.980469 -131.304688 1553.351562 -287.746094 1489.441406 C -559.367188 1378.480469 -732.992188 435.699219 -604.578125 306.289062 C -550.90625 171.820312 -299.113281 318.589844 -82.949219 261.050781 C 182.421875 190.410156 180.421875 -513.800781 289.441406 -479.851562 C 414.46875 -440.921875 430.753906 182.660156 671.496094 357.21875 C 914.679688 533.398438 1204.921875 90.679688 1297.019531 272.019531 C 1373.101562 421.839844 1393.460938 757.738281 1166.960938 1020.800781 C 1042.839844 1164.960938 887.25 1189.929688 758.304688 1338.140625 C 585.6875 1536.539062 676.953125 1797.980469 580.488281 1847.941406 C 441.613281 1919.851562 297.710938 1555.070312 46.476562 1537.070312 "/>
<path fill-rule="nonzero" fill="rgb(56.007385%, 85.850525%, 97.241211%)" fill-opacity="1" d="M 108.144531 1493.230469 C -0.742188 1479.539062 27.328125 1361.910156 -102.800781 1284.199219 C -264.898438 1187.398438 -384.796875 749.269531 -339.773438 656.011719 C -357.96875 521.730469 -135.238281 359.789062 16.636719 338.480469 C 178.824219 315.71875 161.867188 73.570312 260.699219 116.710938 C 383.796875 170.429688 497.714844 315.910156 630.921875 419.160156 C 765.238281 523.070312 792.007812 447.058594 865.21875 622.800781 C 932 783.121094 1099.691406 918.03125 990.363281 1086.398438 C 928.519531 1181.628906 773.785156 1222.359375 634.867188 1311.488281 C 504.964844 1394.851562 538.371094 1523.179688 459.921875 1561.039062 C 338.15625 1619.800781 252.25 1511.339844 108.144531 1493.230469 "/>
<path fill-rule="nonzero" fill="rgb(48.048401%, 83.291626%, 96.742249%)" fill-opacity="1" d="M 169.816406 1449.390625 C 120.964844 1430.808594 178.019531 1187.308594 82.140625 1078.960938 C 22.773438 1011.871094 -36.605469 1062.851562 -74.96875 1005.730469 C -165.027344 871.648438 28.507812 391.699219 116.21875 415.910156 C 174.875 432.109375 142.96875 661.808594 231.960938 713.261719 C 352.652344 783.039062 564.671875 449.171875 590.347656 481.089844 C 615.800781 512.738281 377.863281 803.988281 433.414062 973.589844 C 489.589844 1145.078125 809.824219 1082.210938 813.761719 1152 C 816.492188 1200.480469 665.570312 1294.179688 511.433594 1284.851562 C 428.207031 1279.820312 399.726562 1248.109375 339.351562 1274.140625 C 234.589844 1319.300781 207.128906 1463.578125 169.816406 1449.390625 "/>
<g clip-path="url(#clip-5)">
<path fill-rule="nonzero" fill="rgb(80.006409%, 93.569946%, 98.745728%)" fill-opacity="1" d="M 1236.679688 1366.101562 C 1294.5 1202.5 1673.269531 1567.058594 1907.730469 1292.988281 C 2052.910156 1123.289062 1999.378906 876.320312 2116.359375 775.660156 C 2390.960938 539.371094 3093.488281 1549.601562 3005.058594 1849.320312 C 2945.929688 2049.75 2576.691406 1784.691406 2441.730469 2071.199219 C 2258.699219 2459.769531 2705.351562 3440.941406 2637.660156 3512.429688 C 2570.570312 3583.289062 2209.75 2536.769531 1894.140625 2625.679688 C 1575 2715.589844 1506.730469 3908.808594 1387.140625 3877.320312 C 1304.078125 3855.441406 1228.421875 3251.179688 1327.890625 2702.738281 C 1381.609375 2406.621094 1450.441406 2324.898438 1439.449219 2090.671875 C 1420.390625 1684.21875 1192.511719 1491.050781 1236.679688 1366.101562 "/>
</g>
<g clip-path="url(#clip-6)">
<path fill-rule="nonzero" fill="rgb(71.998596%, 90.994263%, 98.243713%)" fill-opacity="1" d="M 1889.738281 1356.621094 C 2005.691406 1224.011719 1977.578125 1089.539062 2083.421875 1010.359375 C 2304.730469 844.800781 2821.5 1568.960938 2774.578125 1802.570312 C 2743.78125 1955.890625 2483.03125 1859.589844 2370.460938 2085.789062 C 2223.191406 2381.710938 2547.699219 3081.570312 2481.941406 3140.109375 C 2412.089844 3202.289062 2138.699219 2498.289062 1896.539062 2564.140625 C 1651.789062 2630.738281 1608.960938 3448.050781 1500.621094 3405.738281 C 1418.941406 3373.839844 1328.269531 2977.691406 1396.480469 2556.179688 C 1433.488281 2327.511719 1503.449219 2229.808594 1508.039062 2031.351562 C 1515.371094 1714.761719 1339.261719 1570.101562 1377.980469 1463.320312 C 1431.078125 1317.949219 1707.808594 1564.699219 1889.738281 1356.621094 "/>
</g>
<g clip-path="url(#clip-7)">
<path fill-rule="nonzero" fill="rgb(63.990784%, 88.418579%, 97.741699%)" fill-opacity="1" d="M 1871.75 1420.25 C 1958.519531 1324.769531 1954.96875 1302.300781 2050.488281 1245.050781 C 2216.328125 1145.648438 2570.691406 1600.660156 2544.089844 1755.820312 C 2555.878906 1868.480469 2389.628906 1934.511719 2299.191406 2100.371094 C 2188.171875 2303.980469 2389.75 2721.601562 2326.210938 2767.800781 C 2253.328125 2820.78125 2067.648438 2459.808594 1898.949219 2502.589844 C 1728.589844 2545.878906 1711.261719 2985.941406 1614.089844 2934.171875 C 1533.820312 2891.390625 1428.070312 2704 1465.070312 2409.621094 C 1485.351562 2248.300781 1555.128906 2138.699219 1576.640625 1972.03125 C 1605.429688 1748.910156 1485.851562 1648.988281 1519.289062 1560.539062 C 1567.441406 1433.199219 1742.460938 1562.53125 1871.75 1420.25 "/>
</g>
<g clip-path="url(#clip-8)">
<path fill-rule="nonzero" fill="rgb(56.007385%, 85.850525%, 97.241211%)" fill-opacity="1" d="M 1853.761719 1483.878906 C 1911.46875 1425.710938 1931.109375 1512.769531 2017.558594 1479.738281 C 2125.238281 1438.609375 2309.289062 1626.179688 2313.609375 1709.070312 C 2360.851562 1777.851562 2296.910156 2009.800781 2227.921875 2114.960938 C 2154.25 2227.261719 2231.609375 2360.960938 2170.480469 2395.480469 C 2094.339844 2438.488281 1996.601562 2421.328125 1901.359375 2441.039062 C 1805.378906 2461.03125 1813.808594 2522.539062 1727.558594 2462.589844 C 1648.890625 2407.898438 1527.589844 2429.78125 1533.660156 2263.058594 C 1537.101562 2168.761719 1601.960938 2050.320312 1645.230469 1912.710938 C 1685.679688 1784.03125 1632.621094 1728.050781 1660.601562 1657.75 C 1704.039062 1548.660156 1777.390625 1560.859375 1853.761719 1483.878906 "/>
</g>
<g clip-path="url(#clip-9)">
<path fill-rule="nonzero" fill="rgb(48.048401%, 83.291626%, 96.742249%)" fill-opacity="1" d="M 1835.78125 1547.5 C 1865.210938 1528.808594 1906.371094 1708.378906 1984.621094 1714.429688 C 2033.070312 1718.191406 2047.890625 1651.710938 2083.121094 1662.320312 C 2165.820312 1687.21875 2206.898438 2090.539062 2156.648438 2129.550781 C 2123.050781 2155.628906 2073.390625 1999.578125 2014.75 2023.171875 C 1935.230469 2055.160156 1925.550781 2382.851562 1903.769531 2379.488281 C 1882.179688 2376.171875 1916.800781 2058.058594 1841.039062 1991.011719 C 1764.429688 1923.21875 1624.070312 2155.621094 1602.25 2116.5 C 1587.089844 2089.339844 1634.980469 1941.699219 1713.820312 1853.390625 C 1756.378906 1805.710938 1779.488281 1807.21875 1801.910156 1754.96875 C 1840.820312 1664.320312 1813.289062 1561.789062 1835.78125 1547.5 "/>
</g>
</svg>
