<?xml version="1.0" encoding="UTF-8" standalone="no"?>
<!-- Created with Inkscape (http://www.inkscape.org/) -->

<svg
   version="1.1"
   id="svg2"
   width="6666.6665"
   height="5066.6665"
   viewBox="0 0 6666.6665 5066.6665"
   sodipodi:docname="vecteezy_nice-abstract-pastel-color-abstract-background-used-for_9279988.eps"
   xmlns:inkscape="http://www.inkscape.org/namespaces/inkscape"
   xmlns:sodipodi="http://sodipodi.sourceforge.net/DTD/sodipodi-0.dtd"
   xmlns="http://www.w3.org/2000/svg"
   xmlns:svg="http://www.w3.org/2000/svg">
  <defs
     id="defs6" />
  <sodipodi:namedview
     id="namedview4"
     pagecolor="#ffffff"
     bordercolor="#000000"
     borderopacity="0.25"
     inkscape:showpageshadow="2"
     inkscape:pageopacity="0.0"
     inkscape:pagecheckerboard="0"
     inkscape:deskcolor="#d1d1d1" />
  <g
     id="g8"
     inkscape:groupmode="layer"
     inkscape:label="ink_ext_XXXXXX"
     transform="matrix(1.3333333,0,0,-1.3333333,0,5066.6667)">
    <g
       id="g10"
       transform="scale(0.1)">
      <path
         d="M 50000,0 H 0 V 38000 H 50000 V 0"
         style="fill:#f6fafb;fill-opacity:1;fill-rule:nonzero;stroke:none"
         id="path12" />
      <path
         d="m -3900.01,41481.8 c 334.45,-4024.4 2134.3,-7938.9 4957.66,-10782.4 2823.37,-2843.6 6644.46,-4590.1 10525.15,-4810.9 5179.9,-294.7 10331.8,2014.3 15424,878 3260.3,-727.5 6098.8,-2788.5 9065.5,-4411.6 5395.3,-2951.9 11605.8,-4529.1 17538,-3546.9 5932.2,982.2 11495.8,4755.7 13963.1,10404.3 1783.2,4082.5 1866.9,8902.1 560.1,13256.9 -897.5,2990.6 -2505.8,5875.5 -4991.7,7677.3 -2503,1814.1 -5622.3,2361 -8631.3,2647.3 C 44087,53785.5 33619.6,52232.3 23597.6,49449.4 13575.6,46666.5 3939,42669.4 -5670.73,38681.6"
         style="fill:#fef9fa;fill-opacity:1;fill-rule:nonzero;stroke:none"
         id="path14" />
      <path
         d="m 5812.53,42612.6 c -41.44,-3540.1 1234.46,-7091.9 3514.45,-9783.5 2280.02,-2691.5 5543.22,-4498.3 8988.62,-4976.5 4598.7,-638.5 9392.5,999.6 13842,-367.5 2848.7,-875.3 5208.3,-2884.4 7719.4,-4520.5 4566.6,-2975.3 9976.9,-4809.9 15355.1,-4388.2 5378.2,421.6 10663.2,3308.7 13342.8,8061.5 1936.6,3435 2418.5,7638.9 1619.9,11539 -548.5,2678.5 -1740.4,5316.8 -3807.2,7073.5 -2081,1768.8 -4819.2,2476 -7480.9,2947.4 -9220.4,1633 -18695.1,1046 -27876.1,-647.8 C 21849.7,45856.2 12910.1,43073.4 3995.4,40296.7"
         style="fill:#fceced;fill-opacity:1;fill-rule:nonzero;stroke:none"
         id="path16" />
      <path
         d="m 20388.4,44680.8 c -635.2,-2691.8 -246.5,-5612.2 1070.6,-8044.1 1317.1,-2432 3550.5,-4353.3 6151.9,-5292.3 3472.3,-1253.4 7484.1,-803.8 10716.1,-2587.8 2069.2,-1142.1 3564.5,-3067.1 5241.2,-4733 3049.3,-3029.5 6949.9,-5330 11209.7,-5905.2 4259.8,-575.1 8866.8,744.7 11762.7,3921.2 2093,2295.8 3184.1,5420.2 3226.4,8526.5 29,2133.3 -449.8,4343.3 -1760.1,6027 -1319.2,1695.4 -3331,2690.9 -5323.4,3494 -6901.8,2782 -14379.6,3914.2 -21817.2,4153.5 -7437.6,239.3 -14872.6,-391.8 -22287.3,-1022.3"
         style="fill:#fdd7df;fill-opacity:1;fill-rule:nonzero;stroke:none"
         id="path18" />
      <path
         d="m -16602.2,19177.2 c 2632.2,2318 6946.04,3816.3 11643.03,4044 4697.006,227.8 9710.74,-818.3 13532.08,-2823.3 3380.59,-1773.8 6050.59,-4323.9 10157.79,-5168.2 3903.4,-802.3 7826.8,205.5 11395.4,1128.4 3568.6,923 7697.4,1766.1 11460.6,680.3 5311.7,-1532.6 6880.6,-5961.2 11515.2,-8260.7 3141.7,-1558.8 7275.8,-1921 11080.1,-1845.1 3804.2,75.9 7547.1,522.3 11382.5,310.1 3835.3,-212.3 7971.1,-1243.6 10134.7,-3345.9 2094.1,-2034.9 1815.3,-4699.3 -135.3,-6549.6 -1950.6,-1850.3 -5323.2,-2949.2 -8884.4,-3388.8 -3561.3,-439.5 -7328.7,-278.7 -11040.2,-1.8 C 45926.5,-4572.6 26625.5,111 8547.12,6099.2 c -7369.49,2441 -14571.33,5102.2 -21769.42,7762 -1033.1,2249.1 -2066.2,4498.1 -3099.3,6747.1"
         style="fill:#e0f4f9;fill-opacity:1;fill-rule:nonzero;stroke:none"
         id="path20" />
      <path
         d="m 64516.2,8749.9 c -7689.3,-558 -15495.4,761.7 -22341.9,3777.2 -2781.7,1225.2 -5518.5,2754.3 -8631.9,2982.1 -5086,372.1 -9974.5,-2815.3 -15051,-2366.7 -4626.9,408.8 -8340.7,3753.2 -12956.77,4237.1 -3403.3,356.8 -6906.21,-956.4 -9421.1,-3089 -2514.89,-2132.6 -4115.36,-5008.1 -5021.52,-7977 -800.28,-2622 -1089.85,-5413.202 -341.16,-8018.1 1081.86,-3764.1 4229.95,-6790.9 7824.83,-8959.3 5138.45,-3099.4 11294.91,-4721.8 17515.12,-5290.4 6220.2,-568.6 12529.6,-123.7 18754.3,646.2 5390.2,666.7 10794.5,1588.8 15844.5,3454.9 5050,1866.2 9761.8,4740.5 12937.2,8720.4 1706.5,2138.903 2973.8,4731.3 2576.1,7297.2 -329.4,2126.4 -1854.1,4056.8 -3980.6,5040.1"
         style="fill:#c5eff3;fill-opacity:1;fill-rule:nonzero;stroke:none"
         id="path22" />
      <path
         d="M 60991.7,11456 C 53450.8,9852.3 45537.6,10092.7 38343.3,12144.2 35420.2,12977.7 32500,14118.4 29384.8,13918.5 24295.6,13592 19888.7,9766.4 14798.5,9516.9 10159.1,9289.5 6023.08,12094.9 1384.18,11943.4 -2035.95,11831.8 -5326.5,10052.1 -7526.32,7595.8 -9726.14,5139.5 -10918.6,2072.2 -11410.5,-992.699 -11844.9,-3699.5 -11750.2,-6504 -10652.6,-8982.1 c 1586.21,-3580.9 5118.44,-6149.1 8975.95,-7805.8 5513.85,-2368 11834.25,-3133.8 18073.85,-2846.9 6239.6,286.8 12428.9,1590 18490,3203.4 5248.5,1397.1 10476,3049.2 15223.5,5588 4747.6,2538.9 9022.4,6030.1 11624,10406.701 1398.2,2352.099 2299.2,5093.399 1554.7,7580.899 -617.1,2061.4 -2391.3,3765.3 -4632.2,4448.7"
         style="fill:#a4e7ee;fill-opacity:1;fill-rule:nonzero;stroke:none"
         id="path24" />
    </g>
  </g>
</svg>
